<svg id="Layer_1" data-name="Layer 1" xmlns="http://www.w3.org/2000/svg" viewBox="0 0 859.77 217.46">
    <title>
        knox
    </title>
    <path d="M314,153.2v61.32a77.7,77.7,0,0,1-9.72,1.66,104,104,0,0,1-13,.83A57.5,57.5,0,0,1,280,216a19.8,19.8,0,0,1-8.19-3.47,14.93,14.93,0,0,1-5-6.93A33.81,33.81,0,0,1,265.14,194V47.48c2-.37,5.27-.87,9.71-1.52a88.18,88.18,0,0,1,12.77-1,57.51,57.51,0,0,1,11.23,1A20.06,20.06,0,0,1,307,49.42a15,15,0,0,1,5,6.94A33.83,33.83,0,0,1,313.7,68v44.12l57.71-66.31q18.87,0,27,7.07t8.19,16.79A27.28,27.28,0,0,1,403,83.28q-3.6,6.38-11.65,14.42l-34.68,34.69q6.93,7.77,14.56,16.09t15,16.23q7.33,7.9,14.15,15.12t11.79,12.49A25.11,25.11,0,0,1,410,203.14a24.64,24.64,0,0,1-6,8.05,25.24,25.24,0,0,1-8.46,5,29.84,29.84,0,0,1-10,1.67q-11.38,0-18.59-5.69A99.36,99.36,0,0,1,353.1,198.7Z" transform="translate(-19.68 -11.93)" fill="#26232a"/>
    <path d="M516.8,130.17q0-8.59-4.85-12.63t-13.18-4a43.74,43.74,0,0,0-11,1.39,27.53,27.53,0,0,0-9.3,4.16v96.28a64.39,64.39,0,0,1-8.74,1.66,88.46,88.46,0,0,1-12.34.84,64.54,64.54,0,0,1-11-.84,18.56,18.56,0,0,1-8.19-3.33,15.92,15.92,0,0,1-5.13-6.79,29.32,29.32,0,0,1-1.81-11.24V112.41c0-5,1.07-9.06,3.19-12.21a33.78,33.78,0,0,1,8.74-8.6q9.44-6.66,23.73-10.82a113.16,113.16,0,0,1,31.77-4.16q31.35,0,48.28,13.73T564,128.5v86.85a64.39,64.39,0,0,1-8.74,1.66,88.5,88.5,0,0,1-12.35.84,64.71,64.71,0,0,1-11-.84,18.57,18.57,0,0,1-8.18-3.33,15.92,15.92,0,0,1-5.13-6.79,29.32,29.32,0,0,1-1.81-11.24Z" transform="translate(-19.68 -11.93)" fill="#26232a"/>
    <path d="M732.67,148.2q0,17.2-5.27,30.66a62.25,62.25,0,0,1-14.85,22.62,63.09,63.09,0,0,1-22.89,13.87A88.57,88.57,0,0,1,660,220.07a84,84,0,0,1-29.69-5,65.45,65.45,0,0,1-22.89-14.29,63.62,63.62,0,0,1-14.84-22.61,80.75,80.75,0,0,1-5.27-30,80,80,0,0,1,5.27-29.69A63.71,63.71,0,0,1,607.39,95.9a65.45,65.45,0,0,1,22.89-14.29,84,84,0,0,1,29.69-5,82,82,0,0,1,29.69,5.13,66.9,66.9,0,0,1,22.89,14.43,63.86,63.86,0,0,1,14.85,22.61A79.37,79.37,0,0,1,732.67,148.2Zm-97.11,0q0,16.94,6.52,26t18.17,9q11.65,0,17.9-9.15t6.24-25.81q0-16.65-6.38-25.66t-18-9q-11.65,0-18,9T635.56,148.2Z" transform="translate(-19.68 -11.93)" fill="#26232a"/>
    <path d="M746.82,102.7a33.86,33.86,0,0,1,8.74-17.2,21.8,21.8,0,0,1,16.23-6.66q9.16,0,14.16,4.44A89.14,89.14,0,0,1,797,95.76l17.76,23.31,29.69-40.23q15.25,0,24.14,5.41t8.88,14.56a20.72,20.72,0,0,1-1,6.52,26.89,26.89,0,0,1-2.92,6c-1.29,2-3,4.35-5,6.94l-7.21,9.15L843.1,147.92l36.35,48q-1.4,10.55-8.32,16.64a24.37,24.37,0,0,1-16.65,6.11q-10.54-.28-16.79-6.11a89.51,89.51,0,0,1-12.07-14.15l-15-21.36-28.3,40.79c-.93,0-1.94,0-3.05.13s-2,.14-2.78.14q-14.14,0-21.5-5.82t-7.35-14.43a21.83,21.83,0,0,1,3.19-11.79,117.9,117.9,0,0,1,11-14L784,146.26Z" transform="translate(-19.68 -11.93)" fill="#26232a"/>
    <g id="protection">
        <path d="M220.17,72.32a26.7,26.7,0,0,0-22-25.36c-18-3.23-43.62-10.93-63.3-29.28a22.22,22.22,0,0,0-29.84,0C85.36,36,59.76,43.73,41.75,47a26.7,26.7,0,0,0-22,25.36C17,171,79.92,212.91,107.1,226.35a28.85,28.85,0,0,0,25.74,0C160,212.91,223,171,220.17,72.32Z" transform="translate(-19.68 -11.93)" fill="#8aa1b2"/>
        <path d="M197.19,52.51c-17.23-3.08-44.94-10.93-66.14-30.7a16.58,16.58,0,0,0-22.16,0C87.67,41.58,60,49.43,42.75,52.51a21,21,0,0,0-17.33,20c-2.71,96,59.08,136.39,84.21,148.8a23.3,23.3,0,0,0,20.72,0c25.11-12.41,86.9-52.79,84.19-148.8A21,21,0,0,0,197.19,52.51Z" transform="translate(-19.68 -11.93)" fill="#f5fdff"/>
        <path d="M130.34,221.29c25.1-12.41,86.9-52.79,84.19-148.8a21,21,0,0,0-17.33-20c-17.23-3.08-44.94-10.93-66.15-30.7A16.22,16.22,0,0,0,120,17.56V223.72A23.45,23.45,0,0,0,130.34,221.29Z" transform="translate(-19.68 -11.93)" fill="#c1e3ea"/>
        <path d="M173.74,73.2c-12-2.15-31.29-7.62-46.06-21.38a11.54,11.54,0,0,0-15.42,0C97.49,65.59,78.2,71.05,66.19,73.2A14.62,14.62,0,0,0,54.11,87.11c-1.88,66.84,41.15,95,58.63,103.62a16.2,16.2,0,0,0,14.43,0c17.49-8.65,60.52-36.78,58.66-103.62A14.64,14.64,0,0,0,173.74,73.2Z" transform="translate(-19.68 -11.93)" fill="#59b1c9"/>
        <path d="M162.25,83.78c-9.32-1.68-24.32-5.92-35.8-16.62a8.46,8.46,0,0,0-3-1.79,2.72,2.72,0,0,0-3.34,1.91,2.62,2.62,0,0,0-.1.73V173.24a2.85,2.85,0,0,0,2.83,2.88,3.36,3.36,0,0,0,.63-.06,12.65,12.65,0,0,0,2.6-.95c13.58-6.71,47-28.55,45.57-80.43A11.42,11.42,0,0,0,162.25,83.78Z" transform="translate(-19.68 -11.93)" fill="#95d6e5"/>
    </g>
</svg>
